<?xml version="1.0" encoding="UTF-8"?>
<svg width="117px" height="533px" viewBox="0 0 117 533" version="1.1" xmlns="http://www.w3.org/2000/svg" xmlns:xlink="http://www.w3.org/1999/xlink">
    <!-- Generator: Sketch 51.3 (57544) - http://www.bohemiancoding.com/sketch -->
    <title>Group 41</title>
    <desc>Created with Sketch.</desc>
    <defs></defs>
    <g id="account" stroke="none" stroke-width="1" fill="none" fill-rule="evenodd" opacity="0.200000003">
        <g id="Main-1" transform="translate(-1669.000000, -13.000000)">
            <g id="Group-41" transform="translate(1669.000000, 12.000000)">
                <g id="Group-8" transform="translate(59.000000, 229.500000) rotate(50.000000) translate(-59.000000, -229.500000) translate(35.000000, 204.000000)" fill="#FFFFFF">
                    <g id="Group" transform="translate(23.278104, 25.694717) rotate(-24.000000) translate(-23.278104, -25.694717) translate(7.278104, 5.194717)" fill-rule="nonzero">
                        <path d="M20.7984558,1.11819655 L30.1913068,10.5110476 L30.1913068,39.1368792 L1.11819655,39.1368792 L1.11819655,1.11819655 L20.7984558,1.11819655 Z M21.2457344,0 L0,0 L0,40.2550758 L31.3095034,40.2550758 L31.3095034,10.0637689 L21.2457344,0 Z" id="Shape"></path>
                    </g>
                    <g id="Group" transform="translate(26.580003, 8.352391) rotate(-24.000000) translate(-26.580003, -8.352391) translate(20.580003, 2.352391)" fill-rule="nonzero">
                        <path d="M1.12393089,1.54705781 L9.66580565,9.94537166 L1.12393089,9.94537166 L1.12393089,1.54705781 Z M1.12393089,0 L0,0 L0,11.050413 L11.2393089,11.050413 L11.2393089,9.94537166 L1.12393089,0 Z" id="Shape"></path>
                    </g>
                    <text id="GIF" transform="translate(25.227800, 27.658325) rotate(-23.000000) translate(-25.227800, -27.658325) " font-family="Montserrat-SemiBold, Montserrat" font-size="8" font-weight="500">
                        <tspan x="16.7295063" y="30.6583247">GIF</tspan>
                    </text>
                </g>
                <g id="Group-9" transform="translate(76.500000, 15.500000) scale(-1, 1) rotate(-24.000000) translate(-76.500000, -15.500000) translate(64.000000, 5.000000)" fill-rule="nonzero" stroke="#FFFFFF">
                    <rect id="Rectangle-6" x="0.5" y="0.5" width="23.1890963" height="19.3188409" rx="2"></rect>
                    <polyline id="Path-2" points="0.60378252 13.1339234 7.10696436 6.13940051 19.8123817 19.8634055"></polyline>
                    <polyline id="Path-3" points="13.0257339 12.4639988 17.2361484 7.86996027 23.8182283 15.131886"></polyline>
                    <circle id="Oval-3" cx="19.8350589" cy="4.35403733" r="1.45134578"></circle>
                </g>
                <g id="Group-9" transform="translate(75.500000, 519.500000) rotate(21.000000) translate(-75.500000, -519.500000) translate(63.000000, 509.000000)" fill-rule="nonzero" stroke="#FFFFFF">
                    <rect id="Rectangle-6" x="0.5" y="0.5" width="24" height="20" rx="2"></rect>
                    <polyline id="Path-2" points="0.624023438 13.5742188 7.34521484 6.34521484 20.4765625 20.5292969"></polyline>
                    <polyline id="Path-3" points="13.4624023 12.8818359 17.8139648 8.13378906 24.6166992 15.6391602"></polyline>
                    <circle id="Oval-3" cx="20.5" cy="4.5" r="1.5"></circle>
                </g>
                <g id="Group-10" transform="translate(65.000000, 331.500000) rotate(13.000000) translate(-65.000000, -331.500000) translate(56.000000, 321.000000)" fill-rule="nonzero">
                    <ellipse id="Oval" stroke="#FFFFFF" cx="4.15384615" cy="16.8" rx="4.65384615" ry="4.7"></ellipse>
                    <path d="M8.80769231,5.1 L16,5.1 C16.8284271,5.1 17.5,4.42842712 17.5,3.6 L17.5,0.5 L10.3076923,0.5 C9.47926518,0.5 8.80769231,1.17157288 8.80769231,2 L8.80769231,5.1 Z" id="Rectangle" stroke="#FFFFFF"></path>
                    <rect id="Rectangle-7" fill="#FFFFFF" x="8.30769231" y="2.8" width="1.38461538" height="12.6"></rect>
                </g>
                <g id="icons8-pdf" transform="translate(21.000000, 56.000000) rotate(-19.000000) translate(-21.000000, -56.000000) translate(6.000000, 37.000000)" fill="#FFFFFF" fill-rule="nonzero">
                    <g id="Group">
                        <path d="M19.0965837,1.04424844 L27.7208473,9.81593537 L27.7208473,36.5486955 L1.02669805,36.5486955 L1.02669805,1.04424844 L19.0965837,1.04424844 Z M19.5072629,0 L0,0 L0,37.592944 L28.7475454,37.592944 L28.7475454,9.39823599 L19.5072629,0 Z" id="Shape"></path>
                    </g>
                    <g id="Group" transform="translate(18.427914, 0.000000)">
                        <path d="M1.03196317,1.44474843 L8.87488324,9.28766851 L1.03196317,9.28766851 L1.03196317,1.44474843 Z M1.03196317,0 L0,0 L0,10.3196317 L10.3196317,10.3196317 L10.3196317,9.28766851 L1.03196317,0 Z" id="Shape"></path>
                    </g>
                    <path d="M7.12857016,29.4846619 C6.41011479,29.4846619 5.89693239,28.9548594 5.89693239,28.4250569 C5.89693239,26.9416098 7.74438905,25.7760443 10.1050281,24.9283603 C11.1313929,23.1270317 12.1577578,20.7959006 12.7735766,18.6766905 C12.1577578,17.087283 11.8498483,15.7097964 11.8498483,14.6501914 C11.8498483,14.1203889 11.9524848,13.5905864 12.1577578,13.2727049 C12.3630307,12.8488628 12.7735766,12.5309813 13.2867591,12.5309813 C13.697305,12.5309813 14.1078509,12.7429023 14.3131239,13.1667443 C14.5183968,13.4846259 14.5183968,13.9084679 14.5183968,14.4382704 C14.5183968,15.3919149 14.2104874,16.875362 13.7999415,18.4647695 C14.5183968,20.1601376 15.5447616,21.9614662 16.6737629,23.3389527 C18.5212196,23.1270317 20.0607668,23.2329922 20.8818587,23.5508737 C21.9082235,23.8687552 22.1134965,24.5045183 22.1134965,24.9283603 C22.1134965,25.3522023 21.9082235,26.4118073 20.1634033,26.4118073 C18.7264926,26.4118073 17.2895818,25.5641233 16.1605805,24.2925972 C14.3131239,24.5045183 12.2603942,24.9283603 10.6182105,25.4581628 C9.6944822,27.8952544 8.25757146,29.4846619 7.12857016,29.4846619 Z M6.9232972,28.4250569 C6.9232972,28.4250569 7.02593368,28.4250569 7.12857016,28.4250569 C7.64175257,28.4250569 8.46284442,27.6833334 9.28393627,26.4118073 C7.84702553,27.0475703 6.9232972,27.7892939 6.9232972,28.4250569 C6.9232972,28.4250569 6.9232972,28.4250569 6.9232972,28.4250569 Z M17.8027642,24.5045183 C18.6238561,25.2462418 19.5475844,25.6700838 20.3686763,25.6700838 C21.2924046,25.6700838 21.2924046,25.3522023 21.2924046,25.2462418 C21.2924046,25.0343208 20.8818587,24.9283603 20.7792222,24.8223998 C20.0607668,24.5045183 19.034402,24.3985578 17.8027642,24.5045183 Z M13.3893955,20.0541771 C12.8762131,21.5376241 12.2603942,23.0210712 11.5419389,24.3985578 C12.8762131,24.0806762 14.2104874,23.7627947 15.4421252,23.5508737 C14.7236698,22.4912687 14.0052144,21.3257031 13.3893955,20.0541771 Z M13.3893955,13.5905864 C13.2867591,13.5905864 13.1841226,13.5905864 13.1841226,13.6965469 C13.0814861,13.8025074 13.0814861,14.0144284 13.0814861,14.5442309 C13.0814861,15.1799939 13.1841226,15.9217174 13.3893955,16.7694015 C13.5946685,15.9217174 13.697305,15.0740334 13.697305,14.4382704 C13.697305,13.9084679 13.5946685,13.6965469 13.5946685,13.5905864 C13.492032,13.5905864 13.3893955,13.5905864 13.3893955,13.5905864 Z" id="Shape"></path>
                </g>
                <g id="Group-8" transform="translate(93.500000, 425.500000) rotate(6.000000) translate(-93.500000, -425.500000) translate(67.000000, 397.000000)" fill="#FFFFFF">
                    <g id="Group-13" transform="translate(0.796421, 0.115485)" fill-rule="nonzero">
                        <g id="Group" transform="translate(25.754498, 28.428198) rotate(-24.000000) translate(-25.754498, -28.428198) translate(8.052370, 5.747347)">
                            <path d="M23.0110575,1.23715363 L33.403148,11.6292441 L33.403148,43.300377 L1.23715363,43.300377 L1.23715363,1.23715363 L23.0110575,1.23715363 Z M23.5059189,0 L0,0 L0,44.5375306 L34.6403016,44.5375306 L34.6403016,11.1343827 L23.5059189,0 Z" id="Shape"></path>
                        </g>
                        <g id="Group" transform="translate(29.407663, 9.240943) rotate(-24.000000) translate(-29.407663, -9.240943) translate(22.769365, 2.602645)">
                            <path d="M1.24349801,1.71163843 L10.6940829,11.0033899 L1.24349801,11.0033899 L1.24349801,1.71163843 Z M1.24349801,0 L0,0 L0,12.2259888 L12.4349801,12.2259888 L12.4349801,11.0033899 L1.24349801,0 Z" id="Shape"></path>
                        </g>
                    </g>
                    <text id="PDF" transform="translate(27.408065, 31.747921) rotate(-23.000000) translate(-27.408065, -31.747921) " font-family="Montserrat-SemiBold, Montserrat" font-size="8" font-weight="500">
                        <tspan x="18.4080655" y="34.7479209">PDF</tspan>
                    </text>
                </g>
                <g id="Group-8" transform="translate(83.500000, 126.500000) rotate(6.000000) translate(-83.500000, -126.500000) translate(57.000000, 98.000000)" fill="#FFFFFF">
                    <g id="Group-13" transform="translate(0.796421, 0.115485)" fill-rule="nonzero">
                        <g id="Group" transform="translate(25.754498, 28.428198) rotate(-24.000000) translate(-25.754498, -28.428198) translate(8.052370, 5.747347)">
                            <path d="M23.0110575,1.23715363 L33.403148,11.6292441 L33.403148,43.300377 L1.23715363,43.300377 L1.23715363,1.23715363 L23.0110575,1.23715363 Z M23.5059189,0 L0,0 L0,44.5375306 L34.6403016,44.5375306 L34.6403016,11.1343827 L23.5059189,0 Z" id="Shape"></path>
                        </g>
                        <g id="Group" transform="translate(29.407663, 9.240943) rotate(-24.000000) translate(-29.407663, -9.240943) translate(22.769365, 2.602645)">
                            <path d="M1.24349801,1.71163843 L10.6940829,11.0033899 L1.24349801,11.0033899 L1.24349801,1.71163843 Z M1.24349801,0 L0,0 L0,12.2259888 L12.4349801,12.2259888 L12.4349801,11.0033899 L1.24349801,0 Z" id="Shape"></path>
                        </g>
                    </g>
                    <text id="PDF" transform="translate(27.408065, 31.747921) rotate(-23.000000) translate(-27.408065, -31.747921) " font-family="Montserrat-SemiBold, Montserrat" font-size="8" font-weight="500">
                        <tspan x="18.4080655" y="34.7479209">PDF</tspan>
                    </text>
                </g>
            </g>
        </g>
    </g>
</svg>