<?xml version="1.0" standalone="no"?>
<!DOCTYPE svg PUBLIC "-//W3C//DTD SVG 20010904//EN"
 "http://www.w3.org/TR/2001/REC-SVG-20010904/DTD/svg10.dtd">
<svg version="1.0" xmlns="http://www.w3.org/2000/svg"
 width="700.000000pt" height="700.000000pt" viewBox="0 0 700.000000 700.000000"
 preserveAspectRatio="xMidYMid meet">
<metadata>
Created by potrace 1.11, written by Peter Selinger 2001-2013
</metadata>
<g transform="translate(0.000000,700.000000) scale(0.100000,-0.100000)"
fill="#000000" stroke="none">
<path d="M1180 6985 c-429 -59 -812 -325 -1015 -707 -84 -158 -127 -292 -151
-468 -20 -156 -20 -4464 0 -4620 75 -554 462 -994 1010 -1145 162 -45 147 -45
2476 -45 2329 0 2314 0 2476 45 376 104 682 345 859 677 84 158 127 292 151
468 21 157 20 4463 -1 4621 -39 295 -165 556 -372 770 -219 226 -490 363 -803
405 -149 20 -4484 19 -4630 -1z m875 -1130 c108 -28 271 -101 401 -178 l80
-47 85 39 c181 85 441 161 679 198 161 25 547 25 710 0 804 -125 1509 -559
1787 -1100 49 -95 98 -237 113 -328 13 -82 13 -256 0 -337 -26 -159 -114 -358
-188 -422 -93 -82 -271 -129 -524 -137 -326 -11 -694 37 -1138 147 -256 64
-300 71 -439 71 -337 0 -647 -128 -895 -369 -193 -188 -331 -452 -377 -721
-16 -90 -15 -329 0 -421 28 -157 100 -333 187 -456 54 -75 190 -206 267 -257
399 -264 1015 -294 1482 -73 348 164 570 447 636 806 15 85 15 308 0 389 -7
34 -10 66 -7 69 3 3 35 -26 71 -63 52 -54 78 -92 120 -179 50 -103 105 -272
105 -323 0 -37 16 -35 90 13 88 57 225 122 353 169 102 36 336 99 344 92 15
-16 -136 -313 -237 -464 -254 -382 -583 -674 -982 -871 -369 -183 -713 -263
-1127 -262 -265 0 -490 32 -716 101 -410 125 -762 335 -1061 634 -396 396
-647 905 -725 1475 -17 121 -17 485 0 610 38 292 127 593 247 833 48 96 145
255 212 345 29 40 55 79 58 87 6 15 -102 174 -214 315 -42 52 -143 162 -224
243 -81 81 -148 150 -148 153 0 11 149 100 243 144 178 85 298 110 497 105
106 -2 156 -9 235 -30z"/>
</g>
</svg>
