<?xml version="1.0" standalone="no"?>
<!DOCTYPE svg PUBLIC "-//W3C//DTD SVG 20010904//EN"
 "http://www.w3.org/TR/2001/REC-SVG-20010904/DTD/svg10.dtd">
<svg version="1.0" xmlns="http://www.w3.org/2000/svg"
 width="700.000000pt" height="700.000000pt" viewBox="0 0 700.000000 700.000000"
 preserveAspectRatio="xMidYMid meet">
<metadata>
Created by potrace 1.11, written by Peter Selinger 2001-2013
</metadata>
<g transform="translate(0.000000,700.000000) scale(0.100000,-0.100000)"
fill="#000000" stroke="none">
<path d="M1180 6985 c-429 -59 -812 -325 -1015 -707 -84 -158 -127 -292 -151
-468 -20 -156 -20 -4464 0 -4620 75 -554 462 -994 1010 -1145 162 -45 147 -45
2476 -45 2329 0 2314 0 2476 45 236 65 435 178 605 342 179 174 304 383 369
622 51 182 50 125 50 2563 l0 2277 -477 3 c-428 3 -482 5 -516 20 -69 31 -115
76 -148 144 l-32 64 4 458 4 457 -2280 1 c-1822 2 -2299 -1 -2375 -11z m1172
-1710 c119 -25 255 -81 383 -159 l40 -24 75 34 c163 73 379 131 575 154 498
56 1101 -122 1490 -440 401 -328 535 -715 377 -1092 -44 -106 -83 -150 -166
-189 -208 -97 -678 -74 -1209 57 -207 51 -308 62 -428 45 -326 -47 -597 -233
-749 -514 -244 -452 -103 -1014 327 -1300 295 -196 673 -218 993 -57 276 139
482 417 530 715 14 84 15 262 2 328 -5 26 -6 47 -2 47 15 0 98 -100 128 -153
36 -63 77 -176 87 -237 11 -71 15 -73 65 -38 59 40 195 103 300 139 74 26 228
69 244 69 9 0 -11 -48 -69 -163 -286 -566 -817 -948 -1448 -1041 -140 -21
-393 -21 -534 0 -769 112 -1387 658 -1593 1406 -118 432 -73 924 124 1333 51
107 139 253 197 326 l28 36 -46 69 c-79 118 -185 245 -302 360 l-112 111 48
30 c95 59 119 72 193 102 148 59 314 76 452 46z"/>
</g>
</svg>
