<svg width="295" height="306" xmlns="http://www.w3.org/2000/svg"><g fill="none" fill-rule="evenodd"><g opacity=".2" fill="#FFF"><path d="M272.196 265.755l4.325 12.56-12.549 25.729-26.13-12.745 16.666-34.17 17.688 8.626zm.892-.809l-19.095-9.313-17.647 36.181 28.14 13.725 13.236-27.136-4.634-13.457z" fill-rule="nonzero"/><path d="M272.364 266.314l3.995 11.293-7.677-3.744 3.682-7.549zm.678-1.39l-1.01-.493-4.844 9.932 10.101 4.927.485-.993-4.732-13.373z" fill-rule="nonzero"/><text transform="rotate(27 -391.33 642.892)" font-family="Montserrat-SemiBold, Montserrat" font-size="8" font-weight="500"><tspan x="16.73" y="30.658">GIF</tspan></text></g><g opacity=".3" transform="rotate(-15 351.926 -161.181)" fill-rule="nonzero" stroke="#FFF"><rect x=".5" y=".5" width="24" height="20" rx="2"/><path d="M.624 13.574l6.721-7.229L20.477 20.53m-7.015-7.648l4.352-4.748 6.803 7.505"/><circle cx="20.5" cy="4.5" r="1.5"/></g><g opacity=".3" transform="rotate(32 -304.741 213.635)" fill-rule="nonzero" stroke="#FFF"><rect x=".5" y=".5" width="28.415" height="23.708" rx="2"/><path d="M.734 15.971l7.908-8.505 20.434 12.196"/><circle cx="24.12" cy="5.295" r="1.765"/></g><g opacity=".2" fill="#FFF" fill-rule="nonzero"><path d="M22.998 267.892l6.044 9.127-4.54 23.354-23.32-4.533 6.03-31.017 15.786 3.069zm.536-.843l-17.042-3.313-6.384 32.842 25.114 4.882 4.788-24.631-6.476-9.78z"/><path d="M23.247 268.303l5.52 8.184-6.852-1.332 1.332-6.852zm.245-1.262l-.901-.175-1.753 9.015 9.016 1.753.175-.902-6.537-9.691zM7.713 290.705c-.628-.122-.986-.672-.897-1.135.252-1.296 2.064-2 4.27-2.34 1.203-1.4 2.496-3.261 3.393-5.008-.268-1.493-.303-2.749-.123-3.675.09-.463.27-.908.503-1.15.251-.336.664-.544 1.112-.457a1 1 0 0 1 .789.73c.125.312.053.682-.037 1.145-.161.833-.682 2.077-1.311 3.396.34 1.603.93 3.351 1.683 4.746 1.65.129 2.977.483 3.64.9.843.452.914 1.042.842 1.412-.072.37-.431 1.261-1.955.965-1.256-.244-2.367-1.228-3.137-2.53-1.65-.13-3.516-.108-5.04.076-1.221 1.972-2.746 3.117-3.732 2.925zm0-.96l.18.034c.448.088 1.291-.42 2.224-1.392-1.363.311-2.296.802-2.404 1.358zm10.17-1.578c.592.787 1.327 1.315 2.044 1.454.807.157.861-.12.879-.213.036-.185-.305-.348-.376-.458-.574-.4-1.453-.666-2.547-.783zm-3.1-4.637a28.72 28.72 0 0 1-2.351 3.481c1.22-.05 2.439-.102 3.551-.078a25.044 25.044 0 0 1-1.2-3.403zm1.098-5.647c-.09-.017-.18-.035-.197.058-.108.075-.144.26-.234.723-.108.555-.144 1.22-.109 1.996.324-.706.557-1.429.665-1.984.09-.463.036-.666.054-.758l-.179-.035z"/></g><g opacity=".2" transform="rotate(12 -686.007 1406.225)" fill-rule="nonzero"><ellipse stroke="#FFF" cx="4.154" cy="16.8" rx="4.654" ry="4.7"/><path d="M8.808 5.1H16a1.5 1.5 0 0 0 1.5-1.5V.5h-7.192a1.5 1.5 0 0 0-1.5 1.5v3.1z" stroke="#FFF"/><path fill="#FFF" d="M8.308 2.8h1.385v12.6H8.308z"/></g><g opacity=".2" transform="rotate(12 15.5 72.343)" fill-rule="nonzero"><ellipse stroke="#FFF" cx="4.154" cy="16.8" rx="4.654" ry="4.7"/><path d="M8.808 5.1H16a1.5 1.5 0 0 0 1.5-1.5V.5h-7.192a1.5 1.5 0 0 0-1.5 1.5v3.1z" stroke="#FFF"/><path fill="#FFF" d="M8.308 2.8h1.385v12.6H8.308z"/></g><g opacity=".2" fill="#FFF" fill-rule="nonzero"><path d="M165.445 8.189l5.491 11.007-8.26 25.425-25.388-8.25 10.971-33.766 17.186 5.584zm.713-.866l-18.553-6.028-11.616 35.753 27.34 8.883 8.713-26.815-5.884-11.793z"/><path d="M165.666 8.682l5.036 9.883-7.46-2.424 2.424-7.459zm.447-1.374l-.982-.319-3.188 9.815 9.814 3.189.319-.982-5.963-11.703zM145.274 31.54c-.683-.223-1.008-.885-.844-1.39.458-1.41 2.576-1.948 5.083-2.024 1.532-1.396 3.229-3.296 4.47-5.121-.095-1.702.038-3.108.365-4.115.164-.504.425-.976.719-1.215.326-.34.815-.515 1.303-.357.39.127.715.455.78.922.096.366-.035.769-.198 1.273-.295.907-1.046 2.222-1.928 3.607.16 1.835.579 3.865 1.227 5.524 1.823.37 3.254.946 3.937 1.502.878.62.876 1.287.745 1.69-.13.403-.653 1.348-2.313.809-1.366-.444-2.47-1.695-3.152-3.253-1.822-.37-3.905-.6-5.631-.604-1.632 2.032-3.49 3.1-4.563 2.751zm.132-1.072l.195.063c.488.159 1.498-.293 2.672-1.248-1.563.16-2.67.58-2.867 1.185zm11.559-.367c.551.96 1.299 1.648 2.08 1.902.878.285.976-.017 1.01-.118.065-.202-.293-.43-.358-.562-.585-.524-1.528-.942-2.732-1.222zm-2.823-5.596a32.291 32.291 0 0 1-3.1 3.56c1.368.11 2.735.22 3.972.4-.356-1.23-.679-2.56-.872-3.96zm1.998-6.147c-.098-.032-.195-.064-.228.037-.13.069-.196.27-.36.774-.196.605-.328 1.342-.394 2.212.457-.743.816-1.517 1.013-2.122.163-.504.131-.737.164-.838l-.195-.063z"/></g><g opacity=".2" fill="#FFF"><g fill-rule="nonzero"><path d="M179.018 146.57l13.095 6.671 9.787 30.121-30.592 9.94-12.998-40.004 20.708-6.729zm.089-1.33l-22.356 7.263 13.763 42.358 32.945-10.704-10.322-31.769-14.03-7.148z"/><path d="M179.581 146.885l11.86 5.917-8.989 2.92-2.87-8.837zm-.529-1.628l-1.182.384 3.778 11.628 11.826-3.843-.378-1.162-14.044-7.007z"/></g><text transform="rotate(-17 573.084 -412.418)" font-family="Montserrat-SemiBold, Montserrat" font-size="8" font-weight="500"><tspan x="18.408" y="34.748">PDF</tspan></text></g><g opacity=".2" transform="scale(-1 1) rotate(-24 60.333 723.91)" fill-rule="nonzero" stroke="#FFF"><rect x=".5" y=".5" width="32.293" height="26.966" rx="2"/><path d="M.831 18.077l8.95-9.627L27.27 27.34m-9.342-10.185l5.795-6.323 9.06 9.995"/><circle cx="27.301" cy="5.993" r="1.998"/></g><g opacity=".3" transform="rotate(-20 872.65 -211.462)" fill-rule="nonzero"><circle stroke="#FFF" cx="4.154" cy="16.615" r="4.654"/><path d="M8.808 5.038H16a1.5 1.5 0 0 0 1.5-1.5V.5h-7.192a1.5 1.5 0 0 0-1.5 1.5v3.038z" stroke="#FFF"/><path fill="#FFF" d="M8.308 2.77h1l-.083 13.478-.917-1.017z"/></g></g></svg>