<svg width="117" height="533" xmlns="http://www.w3.org/2000/svg"><g fill="none" fill-rule="evenodd" opacity=".2"><g fill="#FFF"><path d="M71.196 212.755l4.325 12.56-12.549 25.729-26.13-12.745 16.666-34.17 17.688 8.626zm.892-.809l-19.095-9.313-17.647 36.181 28.14 13.725 13.236-27.136-4.634-13.457z" fill-rule="nonzero"/><path d="M71.364 213.314l3.995 11.293-7.677-3.744 3.682-7.549zm.678-1.39l-1.01-.493-4.844 9.932 10.101 4.927.485-.993-4.732-13.373z" fill-rule="nonzero"/><text transform="rotate(27 -381.45 197.779)" font-family="Montserrat-SemiBold, Montserrat" font-size="8" font-weight="500"><tspan x="16.73" y="30.658">GIF</tspan></text></g><g transform="scale(-1 1) rotate(-24 -22.59 221.856)" fill-rule="nonzero" stroke="#FFF"><rect x=".5" y=".5" width="23.189" height="19.319" rx="2"/><path d="M.604 13.134l6.503-6.995 12.705 13.724m-6.786-7.399l4.21-4.594 6.582 7.262"/><circle cx="19.835" cy="4.354" r="1.451"/></g><g transform="rotate(21 -1326.461 434.459)" fill-rule="nonzero" stroke="#FFF"><rect x=".5" y=".5" width="24" height="20" rx="2"/><path d="M.624 13.574l6.721-7.229L20.477 20.53m-7.015-7.648l4.352-4.748 6.803 7.505"/><circle cx="20.5" cy="4.5" r="1.5"/></g><g transform="rotate(13 -1367.302 416.253)" fill-rule="nonzero"><ellipse stroke="#FFF" cx="4.154" cy="16.8" rx="4.654" ry="4.7"/><path d="M8.808 5.1H16a1.5 1.5 0 0 0 1.5-1.5V.5h-7.192a1.5 1.5 0 0 0-1.5 1.5v3.1z" stroke="#FFF"/><path fill="#FFF" d="M8.308 2.8h1.385v12.6H8.308z"/></g><g fill="#FFF" fill-rule="nonzero"><path d="M19.028 36.689l11.01 5.486L38.74 67.45 13.5 76.14 1.941 42.57l17.086-5.882zm.048-1.121L.63 41.918l12.24 35.545 27.18-9.359-9.178-26.658-11.797-5.878z"/><path d="M19.501 36.95l9.97 4.861-7.416 2.554-2.554-7.416zm-.47-1.367l-.976.336 3.36 9.758 9.758-3.36-.336-.976-11.806-5.758zM16.97 67.476c-.678.234-1.336-.1-1.509-.6-.483-1.403.885-3.107 2.84-4.677.385-2.037.596-4.576.489-6.78-1.1-1.302-1.84-2.504-2.185-3.506-.172-.501-.248-1.036-.157-1.403.056-.468.34-.902.826-1.069a1.124 1.124 0 0 1 1.177.267c.298.234.436.635.608 1.136.311.901.503 2.404.632 4.04 1.231 1.37 2.788 2.739 4.304 3.674 1.678-.802 3.168-1.203 4.048-1.17 1.074-.034 1.475.5 1.613.901.138.401.289 1.47-1.36 2.038-1.36.468-2.994.134-4.476-.7-1.677.801-3.48 1.87-4.86 2.906-.08 2.605-.922 4.576-1.99 4.943zm-.538-.935l.194-.067c.485-.167 1.02-1.135 1.382-2.605-1.151 1.069-1.783 2.071-1.576 2.672zm9.01-7.249c1.018.434 2.03.534 2.806.267.873-.3.77-.601.735-.702-.069-.2-.492-.167-.623-.233-.783-.067-1.788.167-2.918.668zm-5.622-2.77a32.291 32.291 0 0 1-.332 4.708c1.158-.735 2.316-1.47 3.412-2.071-1.025-.768-2.083-1.636-3.08-2.638zm-2.104-6.112c-.097.033-.194.066-.16.167-.062.133.007.334.18.835.206.6.545 1.269 1.015 2.003-.082-.868-.26-1.703-.468-2.304-.172-.501-.338-.668-.373-.768l-.194.067z"/></g><g fill="#FFF"><g fill-rule="nonzero"><path d="M91.969 402.514l13.094 6.672 9.787 30.121-30.591 9.94-12.999-40.004 20.709-6.729zm.088-1.33l-22.355 7.264 13.762 42.358 32.945-10.704-10.322-31.769-14.03-7.148z"/><path d="M92.532 402.83l11.859 5.917-8.988 2.92-2.871-8.837zm-.53-1.628l-1.182.384 3.778 11.628 11.827-3.843-.378-1.162-14.044-7.007z"/></g><text transform="rotate(-17 1385.843 6.785)" font-family="Montserrat-SemiBold, Montserrat" font-size="8" font-weight="500"><tspan x="18.408" y="34.748">PDF</tspan></text></g><g fill="#FFF"><g fill-rule="nonzero"><path d="M81.969 103.514l13.094 6.672 9.787 30.121-30.591 9.94-12.999-40.004 20.709-6.729zm.088-1.33l-22.355 7.264 13.762 42.358 32.945-10.704-10.322-31.769-14.03-7.148z"/><path d="M82.532 103.83l11.859 5.917-8.988 2.92-2.871-8.837zm-.53-1.628l-1.182.384 3.778 11.628 11.827-3.843-.378-1.162-14.044-7.007z"/></g><text transform="rotate(-17 380.515 -109.259)" font-family="Montserrat-SemiBold, Montserrat" font-size="8" font-weight="500"><tspan x="18.408" y="34.748">PDF</tspan></text></g></g></svg>