<svg width="161" height="472" xmlns="http://www.w3.org/2000/svg"><g fill="none" fill-rule="evenodd"><g opacity=".2" fill="#FFF" fill-rule="nonzero"><path d="M128.558 415.893l15.528 6.112 14.751 33.131-33.083 14.73-19.591-44.002 22.395-9.971zm-.068-1.521l-24.176 10.764 20.744 46.59 35.628-15.862-15.558-34.943-16.638-6.549z"/><path d="M129.229 416.189l14.048 5.392-9.72 4.328-4.328-9.72zm-.797-1.79l-1.28.569 5.695 12.79 12.79-5.695-.57-1.28-16.635-6.385zm.986 43.345c-.89.397-1.818.023-2.11-.633-.82-1.839.827-4.303 3.285-6.656.278-2.799.264-6.254-.142-9.22-1.64-1.63-2.782-3.168-3.367-4.481-.292-.657-.457-1.37-.378-1.877.02-.639.354-1.26.99-1.542a1.525 1.525 0 0 1 1.622.221c.43.281.664.806.956 1.463.527 1.182.964 3.19 1.332 5.387 1.826 1.704 4.092 3.37 6.251 4.455 2.173-1.282 4.14-2 5.332-2.06 1.448-.172 2.053.503 2.287 1.028.234.525.564 1.952-1.599 2.914-1.78.793-4.029.536-6.13-.417-2.172 1.282-4.483 2.94-6.226 4.502.2 3.53-.703 6.293-2.103 6.916zm-.839-1.2l.255-.113c.636-.283 1.244-1.655 1.56-3.684-1.43 1.58-2.166 3.01-1.815 3.797zm11.32-10.862c1.427.466 2.806.482 3.824.029 1.144-.51.969-.904.91-1.035-.116-.263-.684-.168-.87-.242-1.065.002-2.396.437-3.864 1.248zm-7.925-3.08c.183 2.122.238 4.3.108 6.404 1.478-1.13 2.956-2.26 4.366-3.203-1.476-.917-3.01-1.965-4.474-3.201zm-3.567-8.01c-.127.056-.254.113-.196.244-.068.188.049.45.341 1.107.35.788.887 1.65 1.61 2.588-.214-1.164-.554-2.271-.905-3.06-.293-.656-.537-.862-.595-.993l-.255.113z"/></g><g opacity=".3" fill="#FFF"><path d="M129.196 234.755l4.325 12.56-12.549 25.729-26.13-12.745 16.666-34.17 17.688 8.626zm.892-.809l-19.095-9.313-17.647 36.181 28.14 13.725 13.236-27.136-4.634-13.457z" fill-rule="nonzero"/><path d="M129.364 235.314l3.995 11.293-7.677-3.744 3.682-7.549zm.678-1.39l-1.01-.493-4.844 9.932 10.101 4.927.485-.993-4.732-13.373z" fill-rule="nonzero"/><text transform="rotate(27 -398.268 329.573)" font-family="Montserrat-SemiBold, Montserrat" font-size="8" font-weight="500"><tspan x="16.73" y="30.658">GIF</tspan></text></g><g opacity=".2" transform="rotate(-15 1310.704 -224.277)" fill-rule="nonzero" stroke="#FFF"><rect x=".5" y=".5" width="24" height="20" rx="2"/><path d="M.624 13.574l6.721-7.229L20.477 20.53m-7.015-7.648l4.352-4.748 6.803 7.505"/><circle cx="20.5" cy="4.5" r="1.5"/></g><g opacity=".2" transform="rotate(12 -684.62 549.947)" fill-rule="nonzero"><ellipse stroke="#FFF" cx="4.154" cy="16.8" rx="4.654" ry="4.7"/><path d="M8.808 5.1H16a1.5 1.5 0 0 0 1.5-1.5V.5h-7.192a1.5 1.5 0 0 0-1.5 1.5v3.1z" stroke="#FFF"/><path fill="#FFF" d="M8.308 2.8h1.385v12.6H8.308z"/></g><g opacity=".2" fill="#FFF" fill-rule="nonzero"><path d="M29.445 7.189l5.491 11.007-8.26 25.425-25.388-8.25L12.259 1.606 29.445 7.19zm.713-.866L11.605.295-.01 36.048l27.34 8.883 8.713-26.815-5.884-11.793z"/><path d="M29.666 7.682l5.036 9.883-7.46-2.424 2.424-7.459zm.447-1.374l-.982-.319-3.188 9.815 9.814 3.189.319-.982-5.963-11.703zM9.274 30.54c-.683-.223-1.008-.885-.844-1.39.458-1.41 2.576-1.948 5.083-2.024 1.532-1.396 3.229-3.296 4.47-5.121-.095-1.702.038-3.108.365-4.115.164-.504.425-.976.719-1.215.326-.34.815-.515 1.303-.357.39.127.715.455.78.922.096.366-.035.769-.198 1.273-.295.907-1.046 2.222-1.928 3.607.16 1.835.579 3.865 1.227 5.524 1.823.37 3.254.946 3.937 1.502.878.62.876 1.287.745 1.69-.13.403-.653 1.348-2.313.809-1.366-.444-2.47-1.695-3.152-3.253-1.822-.37-3.905-.6-5.631-.604-1.632 2.032-3.49 3.1-4.563 2.751zm.132-1.072l.195.063c.488.159 1.498-.293 2.672-1.248-1.563.16-2.67.58-2.867 1.185zm11.559-.367c.551.96 1.299 1.648 2.08 1.902.878.285.976-.017 1.01-.118.065-.202-.293-.43-.358-.562-.585-.524-1.528-.942-2.732-1.222zm-2.823-5.596a32.291 32.291 0 0 1-3.1 3.56c1.368.11 2.735.22 3.972.4-.356-1.23-.679-2.56-.872-3.96zm1.998-6.147c-.098-.032-.195-.064-.228.037-.13.069-.196.27-.36.774-.196.605-.328 1.342-.394 2.212.457-.743.816-1.517 1.013-2.122.163-.504.131-.737.164-.838l-.195-.063z"/></g><g opacity=".3" fill="#FFF"><g fill-rule="nonzero"><path d="M37.018 121.57l13.095 6.671 9.787 30.121-30.592 9.94-12.998-40.004 20.708-6.729zm.089-1.33l-22.356 7.263 13.763 42.358 32.945-10.704-10.322-31.769-14.03-7.148z"/><path d="M37.581 121.885l11.86 5.917-8.989 2.92-2.87-8.837zm-.529-1.628l-1.182.384 3.778 11.628 11.826-3.843-.378-1.162-14.044-7.007z"/></g><text transform="rotate(-17 418.444 50.154)" font-family="Montserrat-SemiBold, Montserrat" font-size="8" font-weight="500"><tspan x="18.408" y="34.748">PDF</tspan></text></g><g opacity=".2" transform="scale(-1 1) rotate(-24 104.639 295.698)" fill-rule="nonzero" stroke="#FFF"><rect x=".5" y=".5" width="32.293" height="26.966" rx="2"/><path d="M.831 18.077l8.95-9.627L27.27 27.34m-9.342-10.185l5.795-6.323 9.06 9.995"/><circle cx="27.301" cy="5.993" r="1.998"/></g><g opacity=".3" transform="rotate(-20 1104.53 -.995)" fill-rule="nonzero"><circle stroke="#FFF" cx="4.154" cy="16.615" r="4.654"/><path d="M8.808 5.038H16a1.5 1.5 0 0 0 1.5-1.5V.5h-7.192a1.5 1.5 0 0 0-1.5 1.5v3.038z" stroke="#FFF"/><path fill="#FFF" d="M8.308 2.77h1l-.083 13.478-.917-1.017z"/></g></g></svg>