<svg width="108" height="36" xmlns="http://www.w3.org/2000/svg"><g fill="none"><path d="M7.434 21.352c.018.252.036.846.036 1.476 0 .828-.018 1.692-.072 1.926-.072.36-.18.9-.648.9-.954 0-1.026-1.35-1.422-2.916-.54-2.07-.828-3.114-1.116-4.428-.144-.684-.144-1.422-.396-2.07-.144-.306-.216-.828-.306-1.152l-.504-1.998c0-.018-.486-1.926-.522-1.962 0 .612-.054 1.224-.036 1.818.018.36.18 2.754.18 4.212 0 1.656.162 3.312.198 4.968 0 .486.018.99.018 1.476 0 .936-.018 1.944-.738 1.944-.558 0-.81-.504-.81-1.206 0 .018-.018-.882-.018-2.592 0-1.296 0-3.042.054-5.238 0-.666.018-1.332.018-1.998a32.2 32.2 0 0 0-.108-2.934 28.76 28.76 0 0 1-.108-1.566c0-.414.054-.27.054-.558 0-.27-.18-.216-.36-.288-.18-.072-.288-.378-.288-.54 0-.198.108-.396.27-.504.216-.144.504-.18.738-.288a.876.876 0 0 1 .396-.108c.144 0 .288.054.432.126.45.216.63.774.81 1.638.09.432.27.792.414 1.206.018.108 1.044 3.636 1.098 3.834.216.846.396 1.674.558 2.556.486 2.646.936 4.41 1.134 5.292.018-.396-.054-2.898-.306-5.508-.018-.126-.018-.252-.018-.342v-.288c0-.162-.018-.342-.036-.504a6.99 6.99 0 0 1-.072-.864c.036-1.044.09-2.088.09-3.132 0-.612-.018-1.242-.072-1.854-.054-.54-.144-.954-.144-1.296 0-.27.054-.486.234-.666a.704.704 0 0 1 .522-.198c.288 0 .558.144.648.432.054.198.072.54.072.99 0 .36-.018.774-.036 1.224a43.39 43.39 0 0 0-.036 1.53c0 .306 0 .63.018.936.036.738.126 1.458.126 2.178 0 .198 0 .396-.018.594-.072.594-.09.954-.09 1.242 0 .576.09.792.09 1.638 0 .234.054 2.736.072 2.862zm8.72 1.782c.108.522.198 1.026.198 1.44 0 .558-.162.936-.666.936-.972 0-.99-1.152-1.098-2.52 0 .342-.414-3.276-.504-4.122l-.36-2.718c-.198 0-.342-.018-.504-.036-.054-.018-.126-.018-.198-.018h-.216l-.432 3.078c-.198 1.368-.54 3.564-.666 4.572-.126.864-.216 1.512-.504 1.728a.645.645 0 0 1-.432.162c-.684 0-.702-.738-.702-1.08 0-.126.018-.306.216-1.368l.378-2.376c.198-1.062.738-4.086.828-4.68-.504.054-.972-.144-.972-.702 0-.36.216-.522.342-.576a.913.913 0 0 1 .504-.126c.09 0 .198.018.324.036h.054c.054-.252.054-.396.108-.846l.054-.63c.054-.594.09-1.17.162-1.764l.198-1.692c.018-.198.072-.378.126-.576l.054-.234a.746.746 0 0 1-.288-.054c-.252-.036-.54-.234-.54-.612 0-.558.252-.684 1.386-.684.504 0 .684.144.828.36.09.144.126.306.126.396.018.054.018.126.036.18.126.396.126.396.126.432v.036c.036.162.054.324.054.45 0 .216.09 1.242.09 1.206.036.198.468 3.078.468 3.168l.18.756c0 .036.108.522.108.882v.306c.018.252.414 2.898.846 5.634.072.522.162 1.08.288 1.656zm-2.502-8.28v-.27l-.018-.234a86.46 86.46 0 0 0-.18-2.052c-.018-.09-.018-.198-.018-.306l-.162-1.044v-.072l-.036.216c-.144.81-.234 2.376-.36 3.78.018 0 .774-.036.774-.018zm8.738-7.182h.054-.054zm.054 0c.378.018.918.27.918.738 0 .648-.666.774-1.278.774-.198 0-1.044-.09-1.062-.09-.108 0-.198.036-.198.162.036.27.072 1.44.072 1.854 0 .756-.036 1.53-.036 2.268 0 3.258.18 5.85.18 9.396 0 .612.018 1.116.018 1.53 0 .936-.09 1.332-.684 1.332-.612 0-.756-.522-.756-1.224 0-.27.018-.54.018-.81 0-.666-.018-1.314-.018-1.98 0-2.79 0-7.974-.108-10.386-.036-.612-.072-1.188-.072-1.8 0-.144-.018-.27-.18-.306a5.534 5.534 0 0 0-.684-.054c-.108 0-.198 0-.27.018-.27.054-.576.18-.864.18-.324 0-.738-.234-.738-.684 0-.45.378-.72 1.026-.72.144 0 .27.018.414.018.378 0 .738-.108 1.116-.108.27 0 .54.072.81.072.234 0 2.556-.162 2.376-.18zm8.36 7.83v4.59c0 .648.018 1.296.018 1.944 0 .756-.018 1.53-.288 2.232-.216.594-.63 1.044-1.224 1.224a3.837 3.837 0 0 1-1.134.162c-1.998 0-2.538-1.278-2.592-3.816.018-.738.108-8.064.126-8.802 0-1.224-.054-2.556-.054-3.51 0-.198-.036-.378-.162-.414-.288-.108-.612-.234-.612-.684 0-.468.594-.756 1.188-.756.882 0 1.206.432 1.206 1.26 0 .432-.072.9-.072 1.332 0 0-.108 9.072-.108 9.954v1.152c0 1.116.036 1.89.288 2.232.27.432.288.72.954.72 1.008 0 1.098-1.89 1.098-4.59v-1.98c0-1.422-.09-1.476-.09-2.862 0-1.53.126-3.042.126-4.572l-.018-1.656c0-.576.198-.99.72-.99.702 0 .648.882.648 1.53 0 .054.072 2.178.072 3.006 0 1.332-.09 2.466-.09 3.294zm-5.22 5.958v.432-.432zm13.724-2.7c.072.81.09 1.242.09 1.674 0 .396-.018.828-.036 1.566l-.036 1.764c-.018.162-.054.36-.054.558 0 .216.072.396.072.594 0 .432-.504.738-.882.738-.432 0-.756-.378-.756-.81 0-.18.27-2.376.27-3.204 0-1.044-.036-2.43-.234-3.222-.09-.396-.072-.774-.162-1.17-.036-.234.108-.648-.18-.756-.432-.18-.882-.216-1.332-.216-.108 0-.198 0-.288.018-.09.018-.036.198-.036.27.054.378.036.774.054 1.17.018.504.072 5.544.072 6.21 0 .234-.036.486-.036.702 0 .468-.108.81-.72.81-.576 0-.774-.486-.774-1.08 0-.306.054-1.134.054-1.89 0-.954-.036-1.908-.036-2.862 0-3.006.054-2.232.054-5.31-.036-1.602-.36-3.204-.27-4.806.018-.306-.162-.216-.27-.216-.324 0-.558-.36-.558-.666 0-.342.324-.558.648-.594.18-.018.288-.036.414-.126.18-.144.342-.234.54-.234.234 0 .468.09.54.288.054.18.09.234.27.306 1.602.666 3.42 2.574 3.42 4.176 0 1.116-.432 2.088-1.296 2.79.144.09.342.108.486.216.63.486.756.792.756 1.8 0 .504.144 1.008.216 1.512zm-3.636-3.978c1.134-.252 1.98-1.116 1.98-2.25 0-.846-.738-1.998-2.106-2.808 0 .45.09 3.78.09 3.834 0 .396.036.81.036 1.224zm12.068 8.352c.108.522.198 1.026.198 1.44 0 .558-.162.936-.666.936-.972 0-.99-1.152-1.098-2.52 0 .342-.414-3.276-.504-4.122l-.36-2.718c-.198 0-.342-.018-.504-.036-.054-.018-.126-.018-.198-.018h-.216l-.432 3.078c-.198 1.368-.54 3.564-.666 4.572-.126.864-.216 1.512-.504 1.728a.645.645 0 0 1-.432.162c-.684 0-.702-.738-.702-1.08 0-.126.018-.306.216-1.368l.378-2.376c.198-1.062.738-4.086.828-4.68-.504.054-.972-.144-.972-.702 0-.36.216-.522.342-.576a.913.913 0 0 1 .504-.126c.09 0 .198.018.324.036h.054c.054-.252.054-.396.108-.846l.054-.63c.054-.594.09-1.17.162-1.764l.198-1.692c.018-.198.072-.378.126-.576l.054-.234a.746.746 0 0 1-.288-.054c-.252-.036-.54-.234-.54-.612 0-.558.252-.684 1.386-.684.504 0 .684.144.828.36.09.144.126.306.126.396.018.054.018.126.036.18.126.396.126.396.126.432v.036c.036.162.054.324.054.45 0 .216.09 1.242.09 1.206.036.198.468 3.078.468 3.168l.18.756c0 .036.108.522.108.882v.306c.018.252.414 2.898.846 5.634.072.522.162 1.08.288 1.656zm-2.502-8.28v-.27l-.018-.234a86.46 86.46 0 0 0-.18-2.052c-.018-.09-.018-.198-.018-.306l-.162-1.044v-.072l-.036.216c-.144.81-.234 2.376-.36 3.78.018 0 .774-.036.774-.018zm9.314 9.378c.594 0 1.08.126 1.08.72 0 .504-.396.63-.828.63-.288 0-.648.072-.72.072-.198 0-1.206-.162-1.638-.162a.4.4 0 0 0-.162.018 3.12 3.12 0 0 1-.576.054c-.612 0-1.17-.198-1.17-.72 0-.108-.054-.144-.054-.27 0-.36.018-1.602.072-2.016 0-.036-.036-1.638-.036-1.386 0-.558.036-3.366.036-3.996 0-.738-.072-1.458-.072-2.196 0 .018.054-2.286.072-2.142 0-.252-.054-.792-.216-2.304v-.252c0-.306.018-.738.018-.972-.342 0-.81-.198-.81-.594 0-.54.378-.738.63-.738.126 0 .234-.036.36-.036.126 0 .108-.036.198-.108a.721.721 0 0 1 .414-.144c.216 0 .432.126.486.306.036.054.018.144.09.216.126.108.126.216.126.378v.144c0 .09-.108.144-.108.234 0 .054-.036.108-.036.162v2.502c0 .342.036.702.108 1.044.036.108.036.216.036.342 0 .234-.036.486-.036.702 0 .486.036.972.036 1.458.054 2.034.126 4.428.126 5.994 0 .594 0 1.062-.036 1.35a21.303 21.303 0 0 0-.072 1.566c0 .108.072.126.234.126h.378c.288 0 1.224.072 1.53.036.18-.018.36-.018.54-.018zm4.778-10.494c1.728.036 2.754 1.188 2.754 2.934 0 .63-.09 1.35-.198 2.178-.054.468-.072 1.35-.072 2.574 0 1.674-.576 4.23-2.196 4.23-2.196 0-2.754-2.718-2.754-5.706l.144-2.466c0-.144-.036-.18-.162-.198-.144-.018-.414-.27-.414-.576 0-.558.558-.72 1.296-.72.486 0 .81.288.81.72 0 .27-.144.396-.144.54 0 .216.018.414.018.63 0 .108.018 1.602.018 3.204 0 .486 0 .972.054 1.458.09.702.54 1.746 1.062 1.746.198 0 .522-.864.666-1.494.216-.792.216-1.566.198-2.376 0-1.242.27-2.178.27-3.402 0-1.242-.36-1.944-1.584-1.944-.738 0-.81.108-1.278.108-.954 0-1.044-1.242-1.044-1.818 0-.558.09-1.152.09-1.71 0-.486-.108-1.08-.108-1.656 0-1.44 1.116-2.358 2.502-2.358 1.35 0 1.8.702 1.8 2.304 0 0-.072.828-.072.99 0 .198.09 1.188.09 1.332 0 .54-.27.864-.738.864-.684 0-.72-.882-.72-1.458 0 .378.036-1.296.036-1.944 0-.342.036-.612-.306-.63-.972 0-1.008.504-1.098 1.422-.072.54-.09.81-.09 1.188 0 .306.018.702.018 1.422 0 .468.036.63.396.63.09 0 .45-.018.756-.018zm9.458 10.494c.594 0 1.08.126 1.08.72 0 .504-.396.63-.828.63-.288 0-.648.072-.72.072-.198 0-1.206-.162-1.638-.162a.4.4 0 0 0-.162.018 3.12 3.12 0 0 1-.576.054c-.612 0-1.17-.198-1.17-.72 0-.108-.054-.144-.054-.27 0-.36.018-1.602.072-2.016 0-.036-.036-1.638-.036-1.386 0-.558.036-3.366.036-3.996 0-.738-.072-1.458-.072-2.196 0 .018.054-2.286.072-2.142 0-.252-.054-.792-.216-2.304v-.252c0-.306.018-.738.018-.972-.342 0-.81-.198-.81-.594 0-.54.378-.738.63-.738.126 0 .234-.036.36-.036.126 0 .108-.036.198-.108a.721.721 0 0 1 .414-.144c.216 0 .432.126.486.306.036.054.018.144.09.216.126.108.126.216.126.378v.144c0 .09-.108.144-.108.234 0 .054-.036.108-.036.162v2.502c0 .342.036.702.108 1.044.036.108.036.216.036.342 0 .234-.036.486-.036.702 0 .486.036.972.036 1.458.054 2.034.126 4.428.126 5.994 0 .594 0 1.062-.036 1.35a21.303 21.303 0 0 0-.072 1.566c0 .108.072.126.234.126h.378c.288 0 1.224.072 1.53.036.18-.018.36-.018.54-.018zm8.162.72c0 .594-.558.612-1.008.612-.216 0-.414-.072-.63-.072h-.468c-.342 0-.684.018-1.026.018-.198 0-.396.036-.576.036-.216 0-.324.126-.54.126a.503.503 0 0 1-.306-.09c-.108-.072-.252-.036-.378-.072-.324-.072-.594-.18-.666-.522-.144-.162.108-.522.27-.558.108-.036.27-.036.27-.162 0-.306-.036-.612-.036-.936-.018-.432-.018-.882-.018-1.314 0-2.052.09-4.104.09-6.156 0-.702 0-1.404-.036-2.106-.072-1.512-.216-3.006-.216-4.518 0-.018-.342-.108-.378-.126-.18-.09-.27-.288-.27-.486 0-.072.018-.144.036-.216.054-.198.216-.306.396-.378.036-.018.252-.072.252-.072 0-.018.27 0 .324-.036.036-.054.126-.144.198-.144.036 0 .162-.072.252-.072.108 0 .198.018.306.072.054.054.126.18.18.18 1.44 0 2.484-.018 2.538-.018.504 0 .702.036 1.008.108.144.036.414.324.414.54 0 .198-.036.288-.162.414-.072.09-.18.09-.27.126-.126.072-.324.072-.45.09-.162.036-1.062.108-1.26.108-.342 0-.684-.018-1.026-.018-.126 0-.27.036-.414.036-.036 0-.144-.036-.144.018v.27c0 .648.036 1.296.036 1.944 0 .756-.036 1.53-.036 2.304 0 .36.018.738.018 1.116 0 .18 0 .234.162.234s.306-.018.45-.018c.216 0 .558-.054.9-.054.504 0 1.008.108 1.008.648 0 .378-.396.558-.774.612-.252.036-.522.054-.774.09-.27.036-.522.108-.81.108-.072 0-.09.018-.09.162 0 .144.018.306.018.468 0 .27.018.54.018.81 0 1.8.018 3.582.09 5.364.018.27 0 .54-.018.81a23.28 23.28 0 0 1 1.584-.054c.414 0 .846 0 1.242.108.306.09.72.288.72.666zm7.802 0c0 .594-.558.612-1.008.612-.216 0-.414-.072-.63-.072h-.468c-.342 0-.684.018-1.026.018-.198 0-.396.036-.576.036-.216 0-.324.126-.54.126a.503.503 0 0 1-.306-.09c-.108-.072-.252-.036-.378-.072-.324-.072-.594-.18-.666-.522-.144-.162.108-.522.27-.558.108-.036.27-.036.27-.162 0-.306-.036-.612-.036-.936-.018-.432-.018-.882-.018-1.314 0-2.052.09-4.104.09-6.156 0-.702 0-1.404-.036-2.106-.072-1.512-.216-3.006-.216-4.518 0-.018-.342-.108-.378-.126-.18-.09-.27-.288-.27-.486 0-.072.018-.144.036-.216.054-.198.216-.306.396-.378.036-.018.252-.072.252-.072 0-.018.27 0 .324-.036.036-.054.126-.144.198-.144.036 0 .162-.072.252-.072.108 0 .198.018.306.072.054.054.126.18.18.18 1.44 0 2.484-.018 2.538-.018.504 0 .702.036 1.008.108.144.036.414.324.414.54 0 .198-.036.288-.162.414-.072.09-.18.09-.27.126-.126.072-.324.072-.45.09-.162.036-1.062.108-1.26.108-.342 0-.684-.018-1.026-.018-.126 0-.27.036-.414.036-.036 0-.144-.036-.144.018v.27c0 .648.036 1.296.036 1.944 0 .756-.036 1.53-.036 2.304 0 .36.018.738.018 1.116 0 .18 0 .234.162.234s.306-.018.45-.018c.216 0 .558-.054.9-.054.504 0 1.008.108 1.008.648 0 .378-.396.558-.774.612-.252.036-.522.054-.774.09-.27.036-.522.108-.81.108-.072 0-.09.018-.09.162 0 .144.018.306.018.468 0 .27.018.54.018.81 0 1.8.018 3.582.09 5.364.018.27 0 .54-.018.81a23.28 23.28 0 0 1 1.584-.054c.414 0 .846 0 1.242.108.306.09.72.288.72.666zm4.436-4.05zm0 0c0 .071-.018 3.152-.036 3.816 0 .522-.198.918-.63.918-.72 0-.756-.774-.756-1.584 0-4.41.018-5.22.036-6.21.018-.792.054-1.584.054-2.376 0-.324-.234-5.166-.234-5.094 0-.378.018-.954-.036-1.08-.036-.036-.09-.054-.162-.054-.09 0-.216.036-.306.036-.252 0-.486-.306-.486-.576 0-.522.522-.702 1.062-.774.144-.018.234-.144.36-.198a.667.667 0 0 1 .27-.072c.234 0 .36.162.468.324.072.126.306.144.432.198 1.908.738 3.258 1.908 3.258 4.32 0 3.042-1.71 5.148-3.42 5.148 0 0 .126 3.43.126 3.259zm-.18-4.68c1.458 0 2.07-2.178 2.07-3.726 0-1.62-.756-2.448-2.088-2.898v6.498c0 .054-.036.126.018.126z" fill="#333" opacity=".5"/><g fill="#979797"><path d="M93.695 22.791c.723 3.185 3.334 5.502 6.438 5.696.141.009.285.013.43.013 2.302.007 4.458-1.179 5.774-3.172.224-.34.217-.79-.019-1.124a.936.936 0 0 0-1.08-.35c-.628.22-1.286.32-1.943.294-2.923-.122-5.277-2.618-5.393-5.746a6.266 6.266 0 0 1 .441-2.553.997.997 0 0 0-.246-1.1.932.932 0 0 0-1.132-.105c-2.668 1.664-3.991 4.97-3.27 8.147zm3.208-4.352c.134 3.638 2.894 6.564 6.351 6.708a6.236 6.236 0 0 0 2.211-.313c-1.135 1.68-2.959 2.672-4.9 2.666a6.34 6.34 0 0 1-.37-.011c-2.652-.166-4.898-2.159-5.525-4.919-.618-2.722.485-5.547 2.71-7.005a7.27 7.27 0 0 0-.477 2.874zm8.67 6.358zm1.309-8.597a.23.23 0 0 0 0-.4l-.86-.459a.92.92 0 0 1-.363-.364l-.459-.859a.228.228 0 0 0-.4 0l-.459.86a.92.92 0 0 1-.364.363l-.859.459a.228.228 0 0 0 0 .4l.86.459c.153.084.28.21.363.364l.459.859a.23.23 0 0 0 .4 0l.459-.86a.914.914 0 0 1 .364-.363l.859-.459z"/><path d="M103.508 20.497l.598-.333a.757.757 0 0 0 0-1.331l-.596-.327a.04.04 0 0 1-.016-.015l-.33-.6a.761.761 0 0 0-1.33.002l-.328.599a.04.04 0 0 1-.013.014l-.6.327a.759.759 0 0 0 0 1.331l.6.328a.032.032 0 0 1 .013.014l.328.6a.759.759 0 0 0 1.332 0l.326-.594a.041.041 0 0 1 .016-.015zm-.89-.47l-.118.214-.116-.212a1.029 1.029 0 0 0-.412-.414l-.212-.116.215-.118c.172-.095.314-.238.408-.409l.117-.213.117.212c.094.173.237.316.412.412l.214.117-.213.118a1.044 1.044 0 0 0-.413.41z"/></g></g></svg>