<svg width="90" height="36" xmlns="http://www.w3.org/2000/svg"><g fill="none" fill-rule="evenodd" opacity=".5"><path d="M57.09 30.16c0-.68.13-1.318.39-1.915a4.992 4.992 0 0 1 1.065-1.565c.45-.447.973-.8 1.57-1.06a4.741 4.741 0 0 1 1.915-.39c.68 0 1.318.13 1.915.39s1.12.613 1.57 1.06c.45.447.805.968 1.065 1.565.26.597.39 1.235.39 1.915 0 .68-.13 1.32-.39 1.92a4.98 4.98 0 0 1-1.065 1.57c-.45.447-.973.8-1.57 1.06-.597.26-1.235.39-1.915.39-.68 0-1.318-.13-1.915-.39a5.096 5.096 0 0 1-1.57-1.06 4.976 4.976 0 0 1-1.065-1.57c-.26-.6-.39-1.24-.39-1.92zm2.38 0c0 .367.065.712.195 1.035a2.566 2.566 0 0 0 1.355 1.415c.313.14.65.21 1.01.21s.695-.07 1.005-.21c.31-.14.58-.33.81-.57.23-.24.412-.522.545-.845.133-.323.2-.668.2-1.035 0-.36-.067-.702-.2-1.025a2.69 2.69 0 0 0-.545-.845c-.23-.24-.5-.43-.81-.57-.31-.14-.645-.21-1.005-.21-.36 0-.697.07-1.01.21a2.566 2.566 0 0 0-1.355 1.415 2.72 2.72 0 0 0-.195 1.025zm8.72 0c0-.68.13-1.318.39-1.915a4.992 4.992 0 0 1 1.065-1.565c.45-.447.973-.8 1.57-1.06a4.741 4.741 0 0 1 1.915-.39c.68 0 1.318.13 1.915.39s1.12.613 1.57 1.06c.45.447.805.968 1.065 1.565.26.597.39 1.235.39 1.915 0 .68-.13 1.32-.39 1.92a4.98 4.98 0 0 1-1.065 1.57c-.45.447-.973.8-1.57 1.06-.597.26-1.235.39-1.915.39-.68 0-1.318-.13-1.915-.39a5.096 5.096 0 0 1-1.57-1.06 4.976 4.976 0 0 1-1.065-1.57c-.26-.6-.39-1.24-.39-1.92zm2.38 0c0 .367.065.712.195 1.035a2.566 2.566 0 0 0 1.355 1.415c.313.14.65.21 1.01.21s.695-.07 1.005-.21c.31-.14.58-.33.81-.57.23-.24.412-.522.545-.845.133-.323.2-.668.2-1.035 0-.36-.067-.702-.2-1.025a2.69 2.69 0 0 0-.545-.845c-.23-.24-.5-.43-.81-.57-.31-.14-.645-.21-1.005-.21-.36 0-.697.07-1.01.21a2.566 2.566 0 0 0-1.355 1.415 2.72 2.72 0 0 0-.195 1.025zm-22.22-3.862a4.63 4.63 0 0 1 1.035-.668c.55-.26 1.135-.39 1.755-.39.68 0 1.308.13 1.885.39s1.075.613 1.495 1.06c.42.447.75.968.99 1.565s.36 1.235.36 1.915c0 .68-.12 1.32-.36 1.92a4.95 4.95 0 0 1-.99 1.57c-.42.447-.918.8-1.495 1.06-.577.26-1.205.39-1.885.39a4.33 4.33 0 0 1-1.855-.39 4.352 4.352 0 0 1-1.496-1.137l-.119.367c-.08.413-.212.71-.395.89a.891.891 0 0 1-.645.27c-.427 0-.64-.213-.64-.64v-11.2c0-.167.03-.322.09-.465a1.155 1.155 0 0 1 1.09-.715 1.166 1.166 0 0 1 .83.34c.107.107.192.232.255.375s.095.298.095.465v3.028zm0 3.872a2.688 2.688 0 0 0 .75 1.88c.233.24.507.43.82.57.313.14.65.21 1.01.21s.695-.07 1.005-.21c.31-.14.58-.33.81-.57.23-.24.412-.522.545-.845.133-.323.2-.668.2-1.035 0-.36-.067-.702-.2-1.025a2.69 2.69 0 0 0-.545-.845c-.23-.24-.5-.43-.81-.57-.31-.14-.645-.21-1.005-.21-.36 0-.697.07-1.01.21a2.626 2.626 0 0 0-1.37 1.415c-.133.323-.2.665-.2 1.025zm-18.756 3.579a4.072 4.072 0 0 1-1.289.971c-.537.26-1.145.39-1.825.39-.68 0-1.318-.13-1.915-.39a5.096 5.096 0 0 1-1.57-1.06 4.976 4.976 0 0 1-1.065-1.57c-.26-.6-.39-1.24-.39-1.92 0-.68.13-1.318.39-1.915a4.992 4.992 0 0 1 1.065-1.565c.45-.447.973-.8 1.57-1.06a4.741 4.741 0 0 1 1.915-.39c.68 0 1.288.13 1.825.39.528.256.977.602 1.347 1.039l.088-.269c.08-.42.212-.718.395-.895a.9.9 0 0 1 .645-.265c.427 0 .64.213.64.64v8.47c0 .247-.063.435-.19.565-.127.13-.307.195-.54.195a.861.861 0 0 1-.605-.215 1.258 1.258 0 0 1-.345-.565l-.146-.581zm-.554-3.579c0-.36-.067-.702-.2-1.025a2.69 2.69 0 0 0-.545-.845c-.23-.24-.5-.43-.81-.57-.31-.14-.645-.21-1.005-.21-.36 0-.697.07-1.01.21a2.566 2.566 0 0 0-1.355 1.415 2.72 2.72 0 0 0-.195 1.025c0 .367.065.712.195 1.035a2.566 2.566 0 0 0 1.355 1.415c.313.14.65.21 1.01.21s.695-.07 1.005-.21c.31-.14.58-.33.81-.57.23-.24.412-.522.545-.845.133-.323.2-.668.2-1.035zm7.08.02v3.73c0 .167-.032.322-.095.465a1.225 1.225 0 0 1-.255.375 1.166 1.166 0 0 1-.83.34 1.19 1.19 0 0 1-.465-.09 1.155 1.155 0 0 1-.715-1.09v-8.05c0-.427.213-.64.64-.64a.9.9 0 0 1 .64.255c.18.17.313.472.4.905l.1.422a5.377 5.377 0 0 1 1.465-1.047 5.62 5.62 0 0 1 1.045-.385 4.25 4.25 0 0 1 1.07-.14 4.33 4.33 0 0 1 3.285 1.445c.397.443.703.963.92 1.56.217.597.325 1.235.325 1.915v3.76a1.162 1.162 0 0 1-.33.815c-.107.11-.232.198-.375.265s-.298.1-.465.1a1.14 1.14 0 0 1-.465-.095 1.225 1.225 0 0 1-.63-.63 1.113 1.113 0 0 1-.095-.455v-3.75c0-.36-.062-.702-.185-1.025a2.615 2.615 0 0 0-.515-.845c-.22-.24-.48-.43-.78-.57-.3-.14-.63-.21-.99-.21a2.46 2.46 0 0 0-1.02.22 2.978 2.978 0 0 0-.865.585 2.78 2.78 0 0 0-.595.85 2.43 2.43 0 0 0-.22 1.015zm-24.78-6.63a2.098 2.098 0 0 0-.065-.415 1.673 1.673 0 0 1-.055-.415c0-.147.05-.265.15-.355.1-.09.3-.135.6-.135h7.33a1.5 1.5 0 0 1 .36.05 1.05 1.05 0 0 1 .67.505c.08.137.123.305.13.505a1.3 1.3 0 0 1-.08.455 1.16 1.16 0 0 1-.23.38c-.1.11-.222.197-.365.26a1.188 1.188 0 0 1-.485.095h-5.61v3.34h4.2c.147 0 .292.025.435.075a1.105 1.105 0 0 1 .645.57c.067.137.1.295.1.475 0 .173-.033.332-.1.475a1.253 1.253 0 0 1-.265.375 1.159 1.159 0 0 1-.815.33h-4.2v3.74a1.305 1.305 0 0 1-.325.86 1.137 1.137 0 0 1-.855.37 1.097 1.097 0 0 1-.85-.37 1.305 1.305 0 0 1-.32-.86V23.56zm70.82 5.9l4.48-3.47c.18-.133.37-.265.57-.395.2-.13.403-.245.61-.345.1-.033.205-.055.315-.065.11-.01.222.002.335.035.16.047.308.133.445.26s.232.277.285.45c.047.147.067.3.06.46a.825.825 0 0 1-.085.305 1.62 1.62 0 0 1-.19.3 3.176 3.176 0 0 1-.515.505l-2.01 1.55 2.59 4.15c.147.173.233.363.26.57a1.132 1.132 0 0 1-.425 1.055c-.163.13-.358.205-.585.225a.72.72 0 0 1-.315.01.974.974 0 0 1-.29-.105c-.09-.05-.173-.11-.25-.18a2.05 2.05 0 0 1-.205-.215l-2.6-4.17c-.26.207-.503.397-.73.57l-.64.49c-.2.153-.39.302-.57.445-.18.143-.36.285-.54.425v-2.86zm-2.36-6.11a1.166 1.166 0 0 1 .715-1.08c.143-.06.298-.09.465-.09a1.166 1.166 0 0 1 .83.34c.107.107.192.232.255.375s.095.295.095.455v10.57c0 .167-.032.322-.095.465a1.225 1.225 0 0 1-.255.375 1.166 1.166 0 0 1-.83.34 1.19 1.19 0 0 1-.465-.09 1.155 1.155 0 0 1-.715-1.09V23.35z" fill="#333" opacity=".65"/><g opacity=".8" fill-rule="nonzero"><path fill="#FFF" d="M33.806 1.068L9.49 3.624l4.255 5.13-.94 4.828 5.08-.511 2.82 2.698z"/><path d="M20.706 16.207h.017a.436.436 0 0 0 .31-.147l13.1-14.7a.438.438 0 0 0-.372-.726L9.444 3.19a.437.437 0 0 0-.29.715l4.123 4.97-.901 4.624a.439.439 0 0 0 .473.52l4.88-.492 2.676 2.56a.44.44 0 0 0 .301.12zM32.727 1.622L20.682 15.14l-2.494-2.385a.433.433 0 0 0-.346-.118l-4.495.451.828-4.25a.441.441 0 0 0-.093-.363l-3.733-4.5 22.378-2.353z" fill="#333"/><path fill="#FFF" d="M13.194 13.426l2.803-2.58 17.718-9.518-19.659 7.286z"/><path d="M13.195 13.704a.276.276 0 0 0 .189-.073l2.775-2.557 17.688-9.5a.278.278 0 0 0 .121-.359.276.276 0 0 0-.348-.148L13.72 8.29a.279.279 0 0 0 .19.524L30.2 2.9l-14.335 7.7a.282.282 0 0 0-.057.04l-2.801 2.58a.28.28 0 0 0 .189.484z" fill="#333"/><path d="M20.706 16.167a.398.398 0 0 0 .282-.679l-4.742-4.734a.398.398 0 0 0-.563.562l4.743 4.735a.396.396 0 0 0 .28.116zM3.173 22.166a.396.396 0 0 0 .24-.08A5.992 5.992 0 0 0 5.648 18.5c.11-.552.118-1.07.071-1.533a7.01 7.01 0 0 0 .727-.12.397.397 0 1 0-.17-.776 6.52 6.52 0 0 1-.696.11 5.461 5.461 0 0 0-.406-1.094c-.474-.944-1.917-2.273-3.086-2.193-.34.022-.954.189-1.262 1.065-.198.568-.116 1.11.236 1.574.762 1 2.665 1.409 3.86 1.461.047.407.042.863-.054 1.352a5.189 5.189 0 0 1-1.934 3.104.397.397 0 0 0 .24.716zm-.986-8.479c.762 0 1.926 1.062 2.275 1.758.093.184.203.439.295.746-1.1-.08-2.56-.48-3.063-1.141-.19-.249-.228-.513-.117-.828.16-.457.397-.523.561-.534h.05zM7.4 16.57a.368.368 0 0 0 .102-.013c.166-.043.82-.226.982-.278a.398.398 0 1 0-.242-.758c-.157.05-.784.225-.943.267a.396.396 0 0 0-.283.485.4.4 0 0 0 .385.298zm1.877-.689a.4.4 0 0 0 .173-.04c.363-.175.731-.38 1.096-.609a.397.397 0 1 0-.42-.674 11.07 11.07 0 0 1-1.022.568.397.397 0 0 0 .173.755zm9.793-8.973L18.615 9.5c-.035.201-.342.116-.307-.084l.455-2.594c.036-.2.342-.116.307.085zm1.583-.646l-.355 2.399c-.029.202-.336.116-.307-.084l.355-2.4c.03-.202.337-.116.307.085zm1.733-.656l-.421 2.16c-.04.2-.346.115-.307-.085l.421-2.16c.04-.201.346-.116.307.085zm1.834-.67c-.125.59-.232 1.186-.358 1.778-.042.2-.35.115-.307-.085.126-.59.233-1.186.359-1.778.043-.2.35-.116.307.085zm1.7-.619l-.295 1.396c-.042.2-.35.115-.307-.084l.295-1.396c.043-.202.35-.117.307.084zm1.964-.702c-.054.34-.11.681-.163 1.02-.033.202-.34.117-.307-.083l.163-1.021c.032-.202.339-.116.307.084zM17.416 7.461l-.503 2.73c-.037.2-.344.116-.307-.085l.503-2.729c.037-.202.344-.116.307.084zm-1.753.579l-.642 3.65c-.035.202-.342.117-.307-.084l.641-3.65c.036-.202.343-.117.308.084zm-4.466 6.646a.4.4 0 0 0 .257-.094l.258-.219a.399.399 0 0 0 .047-.56.402.402 0 0 0-.56-.048l-.26.22a.399.399 0 0 0 .258.7z" fill="#333"/></g></g></svg>